<?xml version="1.0" encoding="utf-8"?>
<!-- Generator: Adobe Illustrator 24.0.0, SVG Export Plug-In . SVG Version: 6.00 Build 0)  -->
<svg version="1.1" id="Layer_1" xmlns="http://www.w3.org/2000/svg" xmlns:xlink="http://www.w3.org/1999/xlink" x="0px" y="0px"
	 viewBox="0 0 1258 245" style="enable-background:new 0 0 1258 245;" xml:space="preserve">
<style type="text/css">
	.st0{fill:#23CBF5;}
	.st1{fill:#F35874;}
</style>
<path d="M428.5,138.19c-1.06,9.08-4.41,16.09-10.06,21.03c-5.64,4.94-13.14,7.4-22.5,7.4c-10.15,0-18.28-3.64-24.39-10.91
	c-6.12-7.28-9.17-17.01-9.17-29.2v-8.26c0-7.98,1.43-15,4.28-21.06c2.85-6.06,6.89-10.71,12.12-13.95
	c5.23-3.24,11.29-4.87,18.17-4.87c9.12,0,16.44,2.55,21.94,7.64c5.51,5.09,8.71,12.14,9.61,21.15h-11.38
	c-0.98-6.86-3.12-11.83-6.4-14.91c-3.28-3.08-7.87-4.61-13.77-4.61c-7.24,0-12.91,2.68-17.02,8.03c-4.11,5.35-6.16,12.97-6.16,22.85
	v8.32c0,9.33,1.95,16.75,5.84,22.26c3.89,5.51,9.34,8.26,16.34,8.26c6.29,0,11.12-1.43,14.48-4.28c3.36-2.85,5.59-7.82,6.7-14.89
	H428.5z"/>
<path d="M510.02,125.27c0,8.42-1.42,15.76-4.25,22.03c-2.83,6.27-6.84,11.06-12.03,14.36c-5.19,3.3-11.25,4.95-18.17,4.95
	c-6.76,0-12.76-1.66-17.99-4.98c-5.23-3.32-9.29-8.06-12.18-14.22c-2.89-6.15-4.37-13.28-4.45-21.38v-6.19
	c0-8.26,1.44-15.55,4.31-21.88c2.87-6.33,6.93-11.18,12.18-14.54c5.25-3.36,11.26-5.04,18.02-5.04c6.88,0,12.95,1.66,18.2,4.98
	c5.25,3.32,9.29,8.14,12.12,14.45c2.83,6.31,4.25,13.66,4.25,22.03V125.27z M498.76,119.73c0-10.19-2.04-18-6.13-23.45
	c-4.09-5.45-9.81-8.17-17.17-8.17c-7.16,0-12.79,2.72-16.9,8.17s-6.22,13.01-6.34,22.68v6.31c0,9.87,2.07,17.63,6.22,23.27
	s9.86,8.46,17.14,8.46c7.31,0,12.98-2.66,16.99-7.99c4.01-5.33,6.08-12.97,6.19-22.92V119.73z"/>
<path d="M593.02,165.44h-11.38l-43.24-66.18v66.18h-11.38V79.56h11.38l43.36,66.48V79.56h11.27V165.44z"/>
<path d="M672.47,88.82h-27.61v76.62H633.6V88.82h-27.55v-9.26h66.42V88.82z"/>
<path d="M727.98,142.97H692l-8.08,22.47h-11.68l32.8-85.89h9.91l32.86,85.89h-11.62L727.98,142.97z M695.42,133.71h29.2
	l-14.63-40.17L695.42,133.71z"/>
<path d="M822.54,138.19c-1.06,9.08-4.41,16.09-10.06,21.03c-5.64,4.94-13.14,7.4-22.5,7.4c-10.15,0-18.28-3.64-24.39-10.91
	c-6.12-7.28-9.17-17.01-9.17-29.2v-8.26c0-7.98,1.43-15,4.28-21.06c2.85-6.06,6.89-10.71,12.12-13.95
	c5.23-3.24,11.29-4.87,18.17-4.87c9.12,0,16.44,2.55,21.94,7.64c5.51,5.09,8.71,12.14,9.61,21.15h-11.38
	c-0.98-6.86-3.12-11.83-6.4-14.91c-3.28-3.08-7.87-4.61-13.77-4.61c-7.24,0-12.91,2.68-17.02,8.03c-4.11,5.35-6.16,12.97-6.16,22.85
	v8.32c0,9.33,1.95,16.75,5.84,22.26c3.89,5.51,9.34,8.26,16.34,8.26c6.29,0,11.12-1.43,14.48-4.28c3.36-2.85,5.59-7.82,6.7-14.89
	H822.54z"/>
<path d="M895.62,88.82h-27.61v76.62h-11.27V88.82H829.2v-9.26h66.42V88.82z"/>
<path d="M445.25,97.96c-2.87,6.33-4.31,13.63-4.31,21.88v6.19c0.08,8.1,1.56,15.23,4.45,21.38c1.53,3.27,3.41,6.12,5.6,8.59V88.97
	C448.74,91.53,446.81,94.52,445.25,97.96z"/>
<g>
	<path class="st0" d="M491.83,95.29l-31.28,55.74c3.91,3.98,8.91,5.98,15.02,5.98c7.31,0,12.98-2.66,16.99-7.99
		s6.08-12.97,6.19-22.92v-6.37c0-10.19-2.04-18-6.13-23.45C492.36,95.94,492.1,95.61,491.83,95.29z"/>
	<path class="st1" d="M475.46,88.11c-7.16,0-12.79,2.72-16.9,8.17c-4.11,5.45-6.22,13.01-6.34,22.68v6.31
		c0,9.87,2.07,17.63,6.22,23.27c0.66,0.9,1.37,1.73,2.12,2.48l31.28-55.74C487.81,90.5,482.35,88.11,475.46,88.11z"/>
</g>
</svg>
