<?xml version="1.0" encoding="utf-8"?>
<!-- Generator: Adobe Illustrator 24.0.0, SVG Export Plug-In . SVG Version: 6.00 Build 0)  -->
<svg version="1.1" id="Layer_1" xmlns="http://www.w3.org/2000/svg" xmlns:xlink="http://www.w3.org/1999/xlink" x="0px" y="0px"
	 viewBox="0 0 1920 1080" style="enable-background:new 0 0 1920 1080;" xml:space="preserve">
<style type="text/css">
	.st0{fill:#E16376;}
	.st1{fill:#5FC9EF;}
</style>
<path d="M505.06,684.13c5.07,34.62-0.38,63.86-16.35,87.68c-15.97,23.83-41.25,40.38-75.84,49.65
	c-37.5,10.05-71.15,4.66-100.96-16.18c-29.81-20.83-50.74-53.78-62.82-98.83l-8.18-30.52c-7.91-29.5-9.59-56.86-5.05-82.07
	c4.54-25.2,14.87-46.39,30.99-63.56c16.12-17.17,36.89-29.16,62.33-35.98c33.72-9.03,63.27-6.87,88.67,6.5
	c25.39,13.37,44.22,36.25,56.48,68.64l-42.08,11.27c-10.43-24.39-23.24-40.65-38.42-48.77c-15.18-8.12-33.68-9.26-55.48-3.42
	c-26.74,7.17-45.06,22.68-54.94,46.53c-9.89,23.85-9.94,54.03-0.16,90.54l8.24,30.77c9.24,34.48,23.78,59.97,43.63,76.48
	c19.85,16.51,42.7,21.3,68.57,14.37c23.25-6.23,39.69-16.28,49.29-30.15c9.6-13.87,12.93-34.43,10-61.68L505.06,684.13z"/>
<g>
	<path class="st0" d="M772.79,621.09c-10.02-35.64-25.31-61.48-45.9-77.55c-20.58-16.06-44.1-20.55-70.55-13.46
		c-27.18,7.28-45.63,23.02-55.35,47.19c-9.72,24.18-9.54,55.1,0.55,92.74l6.31,23.55c10.29,36.66,25.48,62.84,45.59,78.57
		c20.1,15.72,43.67,19.96,70.7,12.72c26.89-7.21,45.21-23.29,54.95-48.26c9.75-24.96,9.73-55.69-0.05-92.17L772.79,621.09z"/>
	<path class="st1" d="M1313.85,694.01c-10.02,35.64-25.31,61.48-45.9,77.55c-20.58,16.06-44.1,20.55-70.55,13.46
		c-27.18-7.28-45.63-23.02-55.35-47.19c-9.72-24.18-9.54-55.1,0.55-92.74l6.31-23.55c10.29-36.66,25.48-62.84,45.59-78.57
		c20.1-15.72,43.67-19.96,70.7-12.72c26.89,7.21,45.21,23.29,54.95,48.26c9.75,24.96,9.73,55.69-0.05,92.17L1313.85,694.01z"/>
	<path d="M815.31,613.2c-8.18-30.52-20.71-56.06-37.59-76.62c-16.88-20.56-36.69-34.45-59.42-41.68c-22.73-7.23-46.6-7.49-71.6-0.79
		c-25.43,6.81-46.21,18.96-62.32,36.44c-16.11,17.48-26.28,39.29-30.49,65.42c-4.21,26.13-2.17,54.68,6.12,85.64l5.37,20.06
		c8.33,31.11,20.84,56.85,37.52,77.22c16.68,20.38,36.24,34.1,58.7,41.17c22.46,7.07,46.48,7.17,72.05,0.32
		c25-6.7,45.52-18.78,61.56-36.24c16.04-17.46,26.36-38.99,30.94-64.6c4.59-25.61,3.02-53.42-4.72-83.44L815.31,613.2z
		 M779.09,736.59c-9.74,24.97-28.06,41.05-54.95,48.26c-27.03,7.24-50.6,3.01-70.7-12.72c-20.1-15.72-35.3-41.91-45.59-78.57
		l-6.31-23.55c-10.09-37.64-10.27-68.55-0.55-92.74c9.72-24.18,28.17-39.91,55.35-47.19c26.45-7.09,49.97-2.6,70.55,13.46
		c20.58,16.06,35.88,41.91,45.9,77.55l6.25,23.33C788.82,680.9,788.84,711.62,779.09,736.59z"/>
</g>
<path d="M1015.49,698.97H905.34v-34.08h110.15V698.97z"/>
<path d="M1355.89,703.33c-8.33,31.11-20.84,56.85-37.52,77.22c-16.68,20.38-36.24,34.1-58.7,41.17
	c-22.46,7.07-46.48,7.17-72.05,0.32c-25-6.7-45.52-18.78-61.56-36.24c-16.04-17.46-26.36-38.99-30.94-64.6
	c-4.59-25.61-3.02-53.42,4.72-83.44l6.13-22.89c8.18-30.52,20.71-56.06,37.59-76.62c16.88-20.56,36.69-34.45,59.42-41.68
	c22.73-7.23,46.6-7.49,71.6-0.79c25.43,6.81,46.21,18.96,62.32,36.44c16.11,17.48,26.28,39.29,30.49,65.42
	c4.21,26.13,2.17,54.68-6.12,85.64L1355.89,703.33z M1319.74,671.68c10.09-37.64,10.27-68.55,0.55-92.74
	c-9.72-24.18-28.17-39.91-55.35-47.19c-26.45-7.09-49.97-2.6-70.55,13.46c-20.58,16.06-35.88,41.91-45.9,77.55l-6.25,23.33
	c-9.78,36.48-9.79,67.21-0.05,92.17c9.74,24.97,28.06,41.05,54.95,48.26c27.03,7.24,50.6,3.01,70.7-12.72
	c20.1-15.72,35.3-41.91,45.59-78.57L1319.74,671.68z"/>
<path d="M1464.8,698.99l-33.3,124.27l-41.86-11.22l85.06-317.43l117.07,31.37c34.74,9.31,59.57,25.47,74.52,48.47
	c14.94,23.01,18.5,49.12,10.67,78.34c-8.26,30.81-24.24,51.96-47.96,63.44c-23.72,11.48-53.53,12.41-89.43,2.79L1464.8,698.99z
	 M1473.97,664.76l75.21,20.15c22.38,6,40.95,5.32,55.69-2.05c14.74-7.36,24.79-21.02,30.14-40.97c5.07-18.93,3.17-35.66-5.71-50.22
	c-8.88-14.55-23.65-24.83-44.31-30.83l-77.61-20.8L1473.97,664.76z"/>
<path d="M1332.47,284.31c46.01,0,83.45,37.44,83.45,83.45s-37.44,83.45-83.45,83.45c-46.02,0-83.45-37.44-83.45-83.45
	S1286.46,284.31,1332.47,284.31 M1332.47,247.6c-66.36,0-120.16,53.8-120.16,120.16s53.8,120.16,120.16,120.16
	c66.36,0,120.16-53.8,120.16-120.16S1398.84,247.6,1332.47,247.6L1332.47,247.6z"/>
<path d="M583.21,284.31c46.01,0,83.45,37.44,83.45,83.45s-37.44,83.45-83.45,83.45c-46.01,0-83.45-37.44-83.45-83.45
	S537.19,284.31,583.21,284.31 M583.21,247.6c-66.36,0-120.16,53.8-120.16,120.16s53.8,120.16,120.16,120.16
	s120.16-53.8,120.16-120.16S649.57,247.6,583.21,247.6L583.21,247.6z"/>
</svg>
