<?xml version="1.0" encoding="utf-8"?>
<!-- Generator: Adobe Illustrator 24.0.0, SVG Export Plug-In . SVG Version: 6.00 Build 0)  -->
<svg version="1.1" id="Layer_1" xmlns="http://www.w3.org/2000/svg" xmlns:xlink="http://www.w3.org/1999/xlink" x="0px" y="0px"
	 viewBox="0 0 885 561" style="enable-background:new 0 0 885 561;" xml:space="preserve">
<style type="text/css">
	.st0{fill:#B3B3B3;}
	.st1{fill:#999999;}
	.st2{fill:#FFFFFF;}
	.st3{fill:#F25874;}
	.st4{fill:#23CCF3;}
</style>
<path class="st0" d="M47.2,57.3H154V47c0-7.7,6.3-14,14-14h546.2c7.7,0,14,6.3,14,14v10.3h105.7c10,0,18.2,8.1,18.2,18.2v437.1
	c0,10-8.1,18.2-18.2,18.2H47.2c-10,0-18.2-8.1-18.2-18.2V75.4C29,65.4,37.1,57.3,47.2,57.3z"/>
<path class="st1" d="M154,57.3v473.4h29.1V367.8c0-15.3,12.4-27.8,27.8-27.8h460.4c15.3,0,27.8,12.4,27.8,27.8v162.9H727l1.2-473.4
	V47.1c0-7.8-6.3-14.1-14.1-14.1h-15H183.2h-15.1c-7.8,0-14.1,6.3-14.1,14.1V57.3z"/>
<path d="M183.2,32.8h515.9v199.4c0,11.9-9.6,21.5-21.5,21.5H204.7c-11.9,0-21.5-9.6-21.5-21.5V32.8z"/>
<g>
	<path class="st2" d="M305.4,149l5.4,20.2H304l-13.9-51.7h19.1c5.7,0,10.5,1.4,14.5,4.3c4,2.9,6.6,6.7,7.9,11.5
		c1.3,5,0.8,8.9-1.6,11.6s-6.5,4.1-12.4,4.1H305.4z M303.9,143.4h12.3c3.6,0,6.2-0.9,7.7-2.6c1.5-1.7,1.8-4.2,0.9-7.5
		c-0.8-3.1-2.5-5.6-4.9-7.4c-2.4-1.9-5.4-2.8-8.8-2.9h-12.6L303.9,143.4z"/>
	<path class="st2" d="M355.3,163.6h24.5l1.5,5.6h-31.4L336,117.5h6.9L355.3,163.6z"/>
	<path class="st2" d="M414.7,155.7H393l-1.2,13.5h-7l5.9-51.7h6l33.6,51.7h-7L414.7,155.7z M393.6,150.1h17.6l-15.3-24.2
		L393.6,150.1z"/>
	<path class="st2" d="M442.7,143.5l15.5-26h7.7l-19.8,32.4v19.3h-6.8v-19.3l-19.8-32.4h7.8L442.7,143.5z"/>
	<path class="st2" d="M498.4,146.4h-21.7l-6.1,22.8h-6.8l13.9-51.7h32l-1.5,5.6H483l-4.7,17.7h21.7L498.4,146.4z"/>
	<path class="st2" d="M554.3,117.5l-9.4,35.2c-1.3,4.9-3.9,8.9-7.8,12c-3.9,3.1-8.5,4.8-13.8,5.2l-1.8,0.1c-5.7,0-9.8-1.5-12.3-4.6
		c-2.5-3.1-3.1-7.3-1.7-12.6l9.4-35.2h6.8l-9.4,35c-1,3.7-0.8,6.6,0.8,8.7c1.5,2.1,4.2,3.1,8,3.1c3.9,0,7.1-1,9.7-3.1
		c2.6-2.1,4.4-5,5.4-8.7l9.4-35.1H554.3z"/>
	<path class="st2" d="M559.5,163.6H584l-1.5,5.6h-31.4l13.9-51.7h6.9L559.5,163.6z"/>
</g>
</svg>
