<?xml version="1.0" encoding="utf-8"?>
<!-- Generator: Adobe Illustrator 24.0.0, SVG Export Plug-In . SVG Version: 6.00 Build 0)  -->
<svg version="1.1" id="Layer_1" xmlns="http://www.w3.org/2000/svg" xmlns:xlink="http://www.w3.org/1999/xlink" x="0px" y="0px"
	 viewBox="0 0 885 561" style="enable-background:new 0 0 885 561;" xml:space="preserve">
<style type="text/css">
	.st0{fill:#B3B3B3;}
	.st1{fill:#999999;}
	.st2{fill:#FFFFFF;}
	.st3{fill:#F25874;}
	.st4{fill:#23CCF3;}
</style>
<path class="st0" d="M47.2,57.3H154V47c0-7.7,6.3-14,14-14h546.2c7.7,0,14,6.3,14,14v10.3h105.7c10,0,18.2,8.1,18.2,18.2v437.1
	c0,10-8.1,18.2-18.2,18.2H47.2c-10,0-18.2-8.1-18.2-18.2V75.4C29,65.4,37.1,57.3,47.2,57.3z"/>
<path class="st1" d="M154,57.3v473.4h29.1V367.8c0-15.3,12.4-27.8,27.8-27.8h460.4c15.3,0,27.8,12.4,27.8,27.8v162.9H727l1.2-473.4
	V47.1c0-7.8-6.3-14.1-14.1-14.1h-15H183.2h-15.1c-7.8,0-14.1,6.3-14.1,14.1V57.3z"/>
<path d="M183.2,32.8h515.9v199.4c0,11.9-9.6,21.5-21.5,21.5H204.7c-11.9,0-21.5-9.6-21.5-21.5V32.8z"/>
<path class="st2" d="M244,152.8c0.8,5.5-0.1,9.7-2.7,12.7c-2.6,3-6.7,4.5-12.4,4.5c-6.1,0-11.6-2.2-16.5-6.6
	c-4.9-4.4-8.3-10.2-10.2-17.6l-1.3-5c-1.3-4.8-1.6-9-0.8-12.7c0.7-3.6,2.4-6.4,5-8.4c2.6-2,6-2.9,10.2-2.9c5.5,0,10.3,1.5,14.4,4.6
	c4.1,3.1,7.2,7.3,9.2,12.7h-6.9c-1.7-4.1-3.8-7.1-6.3-9c-2.5-1.9-5.5-2.8-9-2.8c-4.4,0-7.3,1.6-9,4.8c-1.6,3.2-1.6,7.8,0,13.8l1.3,5
	c1.5,5.6,3.9,10.1,7.1,13.4c3.2,3.3,7,5,11.2,5c3.8,0,6.5-0.9,8-2.6c1.6-1.7,2.1-4.7,1.6-9H244z"/>
<path class="st2" d="M291,145c1.4,5.1,1.7,9.5,1,13.3c-0.7,3.8-2.3,6.7-4.9,8.7c-2.6,2-6,3-10.1,3c-4.1,0-8-1-11.6-3
	c-3.7-2-6.9-4.9-9.6-8.6s-4.8-8-6.1-12.9l-1-3.7c-1.3-5-1.6-9.4-0.9-13.2c0.7-3.8,2.4-6.7,5-8.8c2.6-2,6-3,10-3c4.1,0,8.1,1,11.8,3
	c3.7,2,6.9,4.9,9.6,8.7c2.7,3.8,4.8,8.2,6.1,13.3L291,145z M283.3,141.7c-1.6-6.1-4.1-10.8-7.5-14.1c-3.3-3.3-7.2-4.9-11.7-4.9
	c-4.3,0-7.3,1.6-8.9,4.9c-1.6,3.3-1.6,7.8-0.2,13.7l1,3.8c1.6,5.9,4.1,10.6,7.5,14s7.3,5.1,11.7,5.1c4.4,0,7.4-1.6,8.9-4.8
	c1.6-3.2,1.6-7.8,0-13.8L283.3,141.7z"/>
<path class="st2" d="M341,145c1.4,5.1,1.7,9.5,1,13.3c-0.7,3.8-2.3,6.7-4.9,8.7c-2.6,2-6,3-10.1,3c-4.1,0-8-1-11.6-3
	c-3.7-2-6.9-4.9-9.6-8.6s-4.8-8-6.1-12.9l-1-3.7c-1.3-5-1.6-9.4-0.9-13.2c0.7-3.8,2.4-6.7,5-8.8c2.6-2,6-3,10-3c4.1,0,8.1,1,11.8,3
	c3.7,2,6.9,4.9,9.6,8.7c2.7,3.8,4.8,8.2,6.1,13.3L341,145z M333.3,141.7c-1.6-6.1-4.1-10.8-7.5-14.1c-3.3-3.3-7.2-4.9-11.7-4.9
	c-4.3,0-7.3,1.6-8.9,4.9c-1.6,3.3-1.6,7.8-0.2,13.7l1,3.8c1.6,5.9,4.1,10.6,7.5,14s7.3,5.1,11.7,5.1c4.4,0,7.4-1.6,8.9-4.8
	c1.6-3.2,1.6-7.8,0-13.8L333.3,141.7z"/>
<path class="st2" d="M359.1,149l5.4,20.2h-6.8l-13.9-51.7h19.1c5.7,0,10.5,1.4,14.5,4.3c4,2.9,6.6,6.7,7.9,11.5
	c1.3,5,0.8,8.9-1.6,11.6c-2.4,2.7-6.5,4.1-12.4,4.1H359.1z M357.6,143.4h12.3c3.6,0,6.2-0.9,7.7-2.6c1.5-1.7,1.8-4.2,0.9-7.5
	c-0.8-3.1-2.5-5.6-4.9-7.4c-2.4-1.9-5.4-2.8-8.8-2.9h-12.6L357.6,143.4z"/>
<path class="st2" d="M426.5,145.3H404l4.9,18.3h26l1.5,5.6h-32.9l-13.9-51.7h32.5l1.5,5.6h-25.7l4.5,16.7H425L426.5,145.3z"/>
<path class="st2" d="M458,148.3h-12.2v20.9H439v-51.7h17.1c5.8,0,10.3,1.3,13.4,4s4.7,6.5,4.7,11.6c0,3.2-0.9,6-2.6,8.4
	c-1.7,2.4-4.2,4.2-7.3,5.4l12.1,22v0.4h-7.3L458,148.3z M445.9,142.7h10.5c3.4,0,6.1-0.9,8.1-2.6c2-1.8,3-4.1,3-7
	c0-3.2-1-5.7-2.9-7.4c-1.9-1.7-4.7-2.6-8.3-2.6h-10.4V142.7z"/>
<path class="st2" d="M514.1,155.7h-21.7l-8.5,13.5h-7l33.6-51.7h6l5.9,51.7h-7L514.1,155.7z M496,150.1h17.6l-2.3-24.2L496,150.1z"
	/>
<path class="st2" d="M566.9,123.1h-16.6l-12.4,46.1h-6.8l12.4-46.1h-16.6l1.5-5.6h40L566.9,123.1z"/>
<path class="st2" d="M569.5,169.2h-6.8l13.9-51.7h6.8L569.5,169.2z"/>
<path class="st2" d="M628.3,145c-1.4,5.1-3.4,9.5-6.1,13.3c-2.7,3.8-5.9,6.7-9.6,8.7c-3.7,2-7.6,3-11.7,3c-4.1,0-7.4-1-10-3
	c-2.6-2-4.3-4.9-5-8.6c-0.7-3.7-0.5-8,0.8-12.9l1-3.7c1.3-5,3.4-9.4,6.1-13.2c2.8-3.8,6-6.7,9.7-8.8c3.7-2,7.6-3,11.7-3
	c4.1,0,7.5,1,10.2,3c2.6,2,4.3,4.9,5,8.7c0.7,3.8,0.4,8.2-1,13.3L628.3,145z M622.4,141.7c1.6-6.1,1.7-10.8,0.1-14.1
	c-1.6-3.3-4.6-4.9-9-4.9c-4.3,0-8.1,1.6-11.5,4.9c-3.4,3.3-5.8,7.8-7.5,13.7l-1,3.8c-1.6,5.9-1.6,10.6,0,14c1.6,3.4,4.6,5.1,9,5.1
	c4.4,0,8.2-1.6,11.5-4.8c3.3-3.2,5.8-7.8,7.4-13.8L622.4,141.7z"/>
<path class="st2" d="M671.8,169.2h-6.9l-15.4-39.9l-10.7,39.9H632l13.9-51.7h6.9l15.4,40l10.7-40h6.8L671.8,169.2z"/>
<g>
	<path class="st3" d="M264.2,122.7c-4.3,0-7.3,1.6-8.9,4.9c-1.6,3.3-1.6,7.8-0.2,13.7l1,3.8c1.6,5.9,4.1,10.6,7.5,14
		c1,1,2,1.8,3.1,2.5l4.1-37.5C268.8,123.1,266.6,122.7,264.2,122.7z"/>
	<path class="st3" d="M284.3,159.3c1.6-3.2,1.6-7.8,0-13.8l-1-3.8c-1.6-6.1-4.1-10.8-7.5-14.1c-1.5-1.5-3.2-2.6-5-3.5l-4.1,37.5
		c2.6,1.7,5.5,2.6,8.6,2.6C279.8,164.1,282.7,162.5,284.3,159.3z"/>
</g>
<g>
	<path class="st4" d="M314.2,122.7c-4.3,0-7.3,1.6-8.9,4.9c-1.6,3.3-1.6,7.8-0.2,13.7l1,3.8c1.6,5.9,4.1,10.6,7.5,14
		c1,1,2,1.8,3.1,2.5l4.1-37.5C318.8,123.1,316.6,122.7,314.2,122.7z"/>
	<path class="st4" d="M334.3,159.3c1.6-3.2,1.6-7.8,0-13.8l-1-3.8c-1.6-6.1-4.1-10.8-7.5-14.1c-1.5-1.5-3.2-2.6-5-3.5l-4.1,37.5
		c2.6,1.7,5.5,2.6,8.6,2.6C329.8,164.1,332.8,162.5,334.3,159.3z"/>
</g>
<g>
	<path class="st4" d="M613.7,122.5c4.3,0,7.3,1.7,8.9,5c1.6,3.3,1.7,7.9,0.2,13.7l-1,3.8c-1.6,6-4.1,10.7-7.5,14.1
		c-1,1-2,1.8-3.1,2.5L607,124C609,123,611.3,122.5,613.7,122.5z"/>
	<path class="st3" d="M593.4,159.4c-1.6-3.2-1.7-7.8-0.1-13.9l1-3.9c1.7-6.2,4.2-10.9,7.6-14.2c1.5-1.5,3.2-2.7,5-3.5l4.1,37.7
		c-2.6,1.7-5.5,2.6-8.6,2.6C598,164.3,595,162.7,593.4,159.4z"/>
</g>
</svg>
