<?xml version="1.0" encoding="utf-8"?>
<!-- Generator: Adobe Illustrator 24.0.0, SVG Export Plug-In . SVG Version: 6.00 Build 0)  -->
<svg version="1.1" id="Layer_1" xmlns="http://www.w3.org/2000/svg" xmlns:xlink="http://www.w3.org/1999/xlink" x="0px" y="0px"
	 viewBox="0 0 885 561" style="enable-background:new 0 0 885 561;" xml:space="preserve">
<style type="text/css">
	.st0{fill:#B3B3B3;}
	.st1{fill:#999999;}
	.st2{fill:#FFFFFF;}
	.st3{fill:#F25874;}
	.st4{fill:#23CCF3;}
</style>
<path class="st0" d="M47.2,57.3H154V47c0-7.7,6.3-14,14-14h546.2c7.7,0,14,6.3,14,14v10.3h105.7c10,0,18.2,8.1,18.2,18.2v437.1
	c0,10-8.1,18.2-18.2,18.2H47.2c-10,0-18.2-8.1-18.2-18.2V75.4C29,65.4,37.1,57.3,47.2,57.3z"/>
<path class="st1" d="M154,57.3v473.4h29.1V367.8c0-15.3,12.4-27.8,27.8-27.8h460.4c15.3,0,27.8,12.4,27.8,27.8v162.9H727l1.2-473.4
	V47.1c0-7.8-6.3-14.1-14.1-14.1h-15H183.2h-15.1c-7.8,0-14.1,6.3-14.1,14.1V57.3z"/>
<path d="M183.2,32.8h515.9v199.4c0,11.9-9.6,21.5-21.5,21.5H204.7c-11.9,0-21.5-9.6-21.5-21.5V32.8z"/>
<g>
	<path class="st2" d="M256.2,153.2c0.8,5.5-0.1,9.7-2.7,12.7c-2.6,3-6.7,4.5-12.4,4.5c-6.1,0-11.6-2.2-16.5-6.6
		c-4.9-4.4-8.3-10.2-10.2-17.6l-1.3-5c-1.3-4.8-1.6-9-0.8-12.7c0.7-3.6,2.4-6.4,5-8.4c2.6-2,6-2.9,10.2-2.9c5.5,0,10.3,1.5,14.4,4.6
		c4.1,3.1,7.2,7.3,9.2,12.7h-6.9c-1.7-4.1-3.8-7.1-6.3-9c-2.5-1.9-5.5-2.8-9-2.8c-4.4,0-7.3,1.6-9,4.8c-1.6,3.2-1.6,7.8,0,13.8
		l1.3,5c1.5,5.6,3.9,10.1,7.1,13.4c3.2,3.3,7,5,11.2,5c3.8,0,6.5-0.9,8-2.6s2.1-4.7,1.6-9H256.2z"/>
	<path class="st2" d="M303.3,145.4c1.4,5.1,1.7,9.5,1,13.3c-0.7,3.8-2.3,6.7-4.9,8.7c-2.6,2-6,3-10.1,3c-4.1,0-8-1-11.6-3
		c-3.7-2-6.9-4.9-9.6-8.6c-2.7-3.7-4.8-8-6.1-12.9l-1-3.7c-1.3-5-1.6-9.4-0.9-13.2c0.7-3.8,2.4-6.7,5-8.8c2.6-2,6-3,10-3
		c4.1,0,8.1,1,11.8,3c3.7,2,6.9,4.9,9.6,8.7c2.7,3.8,4.8,8.2,6.1,13.3L303.3,145.4z M295.6,142c-1.6-6.1-4.1-10.8-7.5-14.1
		c-3.3-3.3-7.2-4.9-11.7-4.9c-4.3,0-7.3,1.6-8.9,4.9c-1.6,3.3-1.6,7.8-0.2,13.7l1,3.8c1.6,5.9,4.1,10.6,7.5,14
		c3.4,3.4,7.3,5.1,11.7,5.1c4.4,0,7.4-1.6,8.9-4.8c1.6-3.2,1.6-7.8,0-13.8L295.6,142z"/>
	<path class="st2" d="M314.9,117.8l28.2,42.2l5.6-42.2h8.8l13.9,51.7h-6.8l-5.4-20.1l-5.2-21.7l-5.8,41.9h-5.2l-28.1-41.8l6.5,21.6
		l5.4,20.1H320l-13.9-51.7H314.9z"/>
	<path class="st2" d="M384.9,149.3l5.4,20.2h-6.8l-13.9-51.7h19.1c5.7,0,10.5,1.4,14.5,4.3c4,2.9,6.6,6.7,7.9,11.5
		c1.3,5,0.8,8.9-1.6,11.6c-2.4,2.7-6.5,4.1-12.4,4.1H384.9z M383.4,143.7h12.3c3.6,0,6.2-0.9,7.7-2.6c1.5-1.7,1.8-4.2,0.9-7.5
		c-0.8-3.1-2.5-5.6-4.9-7.4c-2.4-1.9-5.4-2.8-8.8-2.9h-12.6L383.4,143.7z"/>
	<path class="st2" d="M452.2,145.7h-22.4l4.9,18.3h26l1.5,5.6h-32.9l-13.9-51.7H448l1.5,5.6h-25.7l4.5,16.7h22.4L452.2,145.7z"/>
	<path class="st2" d="M507.6,123.4h-22.2v46.1h-8.2v-46.1H456l-1-5.6h53.6L507.6,123.4z"/>
	<path class="st2" d="M508.3,169.6h-6.8l13.9-51.7h6.8L508.3,169.6z"/>
	<path class="st2" d="M568.9,123.4h-16.6l-12.4,46.1h-6.8l12.4-46.1h-16.6l1.5-5.6h40L568.9,123.4z"/>
	<path class="st2" d="M571.5,169.6h-6.8l13.9-51.7h6.8L571.5,169.6z"/>
	<path class="st2" d="M603.5,160.5l26.2-42.7h7.5l-33,51.7h-6l-5.3-51.7h7.4L603.5,160.5z"/>
	<path class="st2" d="M665.9,145.7h-22.4l-4.9,18.3h26l-1.5,5.6h-32.9l13.9-51.7h32.5l-1.5,5.6h-25.7l-4.5,16.7h22.4L665.9,145.7z"
		/>
	<path class="st2" d="M275.9,159.4c3.4,3.4,7.3,5.1,11.7,5.1c4.4,0,7.4-1.6,8.9-4.8c1.6-3.2,1.6-7.8,0-13.8l-1-3.8
		c-1.6-6.1-4.1-10.8-7.5-14.1c-3.3-3.3-7.2-4.9-11.7-4.9c-4.3,0-7.3,1.6-8.9,4.9c-1.6,3.3-1.6,7.8-0.2,13.7l1,3.8
		C270,151.3,272.5,156,275.9,159.4z"/>
	<g>
		<path class="st3" d="M276.4,123c-4.3,0-7.3,1.6-8.9,4.9c-1.6,3.3-1.6,7.8-0.2,13.7l1,3.8c1.6,5.9,4.1,10.6,7.5,14
			c1,1,2,1.8,3.1,2.5l4.1-37.5C281.1,123.5,278.8,123,276.4,123z"/>
		<path class="st4" d="M296.6,159.7c1.6-3.2,1.6-7.8,0-13.8l-1-3.8c-1.6-6.1-4.1-10.8-7.5-14.1c-1.5-1.5-3.2-2.6-5-3.5l-4.1,37.5
			c2.6,1.7,5.5,2.6,8.6,2.6C292,164.5,295,162.9,296.6,159.7z"/>
	</g>
</g>
</svg>
