<?xml version="1.0" encoding="utf-8"?>
<!-- Generator: Adobe Illustrator 24.0.0, SVG Export Plug-In . SVG Version: 6.00 Build 0)  -->
<svg version="1.1" id="Layer_1" xmlns="http://www.w3.org/2000/svg" xmlns:xlink="http://www.w3.org/1999/xlink" x="0px" y="0px"
	 viewBox="0 0 1412.6 646.5" style="enable-background:new 0 0 1412.6 646.5;" xml:space="preserve">
<style type="text/css">
	.st0{fill:#B3B3B3;}
	.st1{fill:#999999;}
	.st2{fill:#FFFFFF;}
	.st3{fill:#F25874;}
	.st4{fill:#23CCF3;}
	.st5{fill:#CCCCCC;}
	.st6{fill:#808080;}
	.st7{fill:#0B6AC0;}
</style>
<g>
	<path class="st0" d="M90.2,204.4L73,319.7c-2.9,19.8-2.8,39.9,0.5,59.7L90,479.1c1.5,8.9,9.2,15.4,18.2,15.4h29.6l12.8,59.9
		c1.8,8.5,9.3,14.6,18,14.6h1072.3c9.5,0,17.5-7.3,18.3-16.8l4.5-49.7h37.3c8.8,0,16.4-6.3,18.1-15l17.8-93.1
		c5.7-29.7,6.3-60.2,1.9-90.1l-14.9-100c-1.3-9-9.1-15.7-18.2-15.7H1132v-11.3H808.8v12.6H596v-9.3H278.7v9.3l-170.2-1.2
		C99.3,188.6,91.5,195.3,90.2,204.4z"/>
	<polygon class="st5" points="255.5,190.6 255.5,152 274.7,132.7 1140.7,132.7 1169.8,161.8 1169.8,189.6 	"/>
	<polygon class="st1" points="278.7,189.9 261.4,348.2 278.7,517.1 596.6,517.1 596.6,189.9 	"/>
	<polygon class="st1" points="1126.7,189.9 1144,348.2 1126.7,517.1 808.8,517.1 808.8,189.9 	"/>
	<path class="st6" d="M534.4,340.2v26.1c0,6.9-5.6,12.5-12.5,12.5H346.8c-3.7,0-7.2-1.7-9.6-4.5l-2.6-3.2
		c-10.1-12.2-9.3-30.1,1.9-41.2l0,0c2.4-2.4,5.6-3.7,8.9-3.6l176.7,1.6C528.9,327.9,534.4,333.4,534.4,340.2z"/>
	<path class="st6" d="M865.2,340.2v26.1c0,6.9,5.6,12.5,12.5,12.5h175.2c3.7,0,7.2-1.7,9.6-4.5l2.6-3.2c10.1-12.2,9.3-30.1-1.9-41.2
		v0c-2.4-2.4-5.6-3.7-8.9-3.6l-176.7,1.6C870.7,327.9,865.2,333.4,865.2,340.2z"/>
	<rect x="284" y="177.3" class="st7" width="311.9" height="12.6"/>
	<rect x="808.8" y="177.3" class="st7" width="311.9" height="12.6"/>
</g>
</svg>
