<?xml version="1.0" encoding="utf-8"?>
<!-- Generator: Adobe Illustrator 23.0.0, SVG Export Plug-In . SVG Version: 6.00 Build 0)  -->
<svg version="1.1" id="Layer_1" xmlns="http://www.w3.org/2000/svg" xmlns:xlink="http://www.w3.org/1999/xlink" x="0px" y="0px"
	 viewBox="0 0 1920 1080" style="enable-background:new 0 0 1920 1080;" xml:space="preserve">
<style type="text/css">
	.st0{fill:#96908F;}
	.st1{fill:#DED7D5;}
</style>
<path class="st0" d="M1141.5,1001.8c-121.2,0-240.1,0-359.2,0c-0.2-4.4,4-5.2,6.4-7.1c26.9-22.8,44.1-50.7,48.7-86.2
	c1.2-9.3-1.7-10.5-9.6-10.5c-103.3,0.2-206.7,0.1-309.9,0.2c-44.2,0-82.9-14.1-115.1-44.5c-27.3-25.7-43.3-57.7-43.3-95.5
	c-0.4-208.1-0.3-416.1-0.1-624.2c0-32.6,26.9-60.8,59.4-63.6c3.1-0.3,6.3-0.3,9.4-0.3c355.3,0,710.7,0,1066.1,0
	c32,0,57.2,18.8,65.8,48.3c1.9,6.5,1.7,13.1,1.7,19.7c0,198,0,395.8,0.1,593.8c0,15.4,1.4,30.7-1.6,45.8
	c-12,60.7-62.3,108-125.1,118.1c-11.4,1.8-22.9,2.4-34.4,2.4c-103,0-206,0-308.9,0c-14.1,0-14.1,0-8.9,13.6
	c11.6,29.9,29.4,56.1,50.3,80.3C1135.5,994.8,1137.7,997.4,1141.5,1001.8z M960.6,717.7c184.3,0,368.6-0.1,552.9,0.3
	c10.6,0,13.2-2.7,13.2-13.2c-0.3-187.5-0.3-374.9-0.3-562.4c0-25.7-11.1-36.7-37.1-36.7c-352.2,0-704.4,0-1056.7,0
	c-27,0-38.1,11.1-38.1,38.1c0,186.8,0,373.5,0,560.3c0,15.6-2.1,13.5,14.1,13.6C592.7,717.7,776.7,717.7,960.6,717.7z M960.1,753.3
	c-183.2,0-366.5,0-549.7,0c-3.1,0-6.3,0.2-9.4,0c-5.3-0.3-6.7,2.3-6.1,7c1.7,12.1,3.4,24.3,9.2,35.3c23.7,45.3,62.5,66.6,112.4,66.7
	c296,0.3,592,0.2,887.9,0.3c14.8,0,29.3-1.9,43.1-6.8c40.7-14.4,68.3-41.1,77.6-84.4c3.6-16.7,2.4-18-14.3-18
	C1327.2,753.3,1143.7,753.3,960.1,753.3z M962.7,966.7c32.7,0,65.6-0.1,98.3,0.1c7.3,0.1,8.6-1.7,4.8-8.1
	c-9.6-16.2-17.1-33.4-22.1-51.8c-1.4-5.2-4.1-7.1-9.6-7.1c-50.5,0.2-101.1,0.2-151.6,0c-6.2,0-8.4,2-9,8.1
	c-1.8,17.4-5.2,34.5-12.9,50.3c-3.8,7.6-1.1,8.6,5.9,8.6C898.6,966.6,930.7,966.7,962.7,966.7z"/>
<path class="st1" d="M960.1,753.3c183.6,0,367.1,0,550.8,0c16.7,0,17.9,1.3,14.3,18c-9.3,43.3-36.9,70-77.6,84.4
	c-13.9,4.9-28.4,6.8-43.1,6.8c-296-0.1-592,0.1-887.9-0.3c-49.9-0.1-88.7-21.4-112.4-66.7c-5.8-11-7.4-23.1-9.2-35.3
	c-0.7-4.7,0.8-7.4,6.1-7c3.1,0.3,6.3,0,9.4,0C593.6,753.3,776.9,753.3,960.1,753.3z"/>
<path class="st1" d="M962.7,966.7c-32,0-64.2-0.1-96.2,0.1c-7,0.1-9.7-0.9-5.9-8.6c7.8-15.8,11-33,12.9-50.3c0.7-6.2,2.8-8.2,9-8.1
	c50.5,0.2,101.1,0.2,151.6,0c5.5,0,8.1,1.8,9.6,7.1c4.9,18.2,12.5,35.5,22.1,51.8c3.8,6.4,2.6,8.2-4.8,8.1
	C1028.3,966.6,995.5,966.7,962.7,966.7z"/>
</svg>
