<?xml version="1.0" encoding="utf-8"?>
<!-- Generator: Adobe Illustrator 24.0.0, SVG Export Plug-In . SVG Version: 6.00 Build 0)  -->
<svg version="1.1" id="Layer_1" xmlns="http://www.w3.org/2000/svg" xmlns:xlink="http://www.w3.org/1999/xlink" x="0px" y="0px"
	 viewBox="0 0 640 480" style="enable-background:new 0 0 640 480;" xml:space="preserve">
<style type="text/css">
	.st0{fill:#262626;}
	.st1{fill-rule:evenodd;clip-rule:evenodd;fill:#262626;}
</style>
<g>
	<path class="st0" d="M90,255.9c-2.5-2.7-5.6-4.9-9.1-6.4c-3.5-1.6-7.5-2.3-11.9-2.3s-8.4,0.8-11.9,2.3c-3.5,1.6-6.6,3.7-9.1,6.4
		c-2.5,2.7-4.5,5.9-5.8,9.5s-2,7.6-2,11.9s0.7,8.2,2,11.9c1.3,3.6,3.3,6.8,5.8,9.5s5.6,4.9,9.1,6.4c3.5,1.6,7.5,2.3,11.9,2.3
		s8.4-0.8,11.9-2.3c3.5-1.6,6.6-3.7,9.1-6.4c2.5-2.7,4.5-5.9,5.8-9.5s2-7.6,2-11.9s-0.7-8.2-2-11.9C94.5,261.8,92.5,258.6,90,255.9z
		"/>
	<path class="st0" d="M574.9,320.3c-39.4-11.6-112.2-38.8-170-62.8c-36.8-15.3-70.1-37.5-99.9-63.9c-7.1-6.3-16-10.3-24.8-10.3
		c-5.9,0-15.5,1.6-20.3,4.5c-4.5-20.8-21.8-36.2-42.4-36.2c-11.5,0-30,6.7-37.8,14.6c-12.6-12.6-29.5-20.4-48.1-20.4
		c-38.9,0-70.5,34-70.7,76c-26.8,1.7-48.1,25.8-48,55.3c0.1,30.6,23.6,55.1,51.9,55.1h393.9l0,0h114.9l0,0c0.2,0,0.5,0,0.7-0.1
		c2.7-0.4,4.1-3,3.9-5.5C578.5,324,577.5,321.1,574.9,320.3z M111.3,317.9H97.8v-14.4h-0.3c-2.5,4.6-6.6,8.5-12.1,11.7
		S73.5,320,66.2,320c-5.7,0-11-1.1-16-3.2s-9.3-5.1-12.9-8.9c-3.6-3.8-6.5-8.3-8.6-13.5s-3.1-10.9-3.1-17s1-11.8,3.1-17
		c2.1-5.2,5-9.7,8.7-13.5c3.7-3.8,8.2-6.8,13.4-8.9c5.3-2.1,11.1-3.2,17.4-3.2c5.9,0,11.3,1.2,16.2,3.6c4.9,2.4,9.2,5.8,12.9,10.2
		h0.3v-83l13.5-8.4v160.7L111.3,317.9L111.3,317.9z M196,317.9c0-2.2-0.1-4.4-0.2-6.6c-0.1-2.2-0.2-4.5-0.2-6.8h-0.3
		c-0.9,2-2.2,3.9-3.9,5.7c-1.7,1.9-3.7,3.5-6,4.9s-4.9,2.6-7.8,3.5c-2.9,0.9-6,1.3-9.4,1.3c-5.3,0-9.9-0.8-13.8-2.4
		c-3.9-1.6-7.1-3.9-9.6-6.8s-4.4-6.4-5.6-10.5c-1.2-4.1-1.8-8.6-1.8-13.4v-50.1h13.5v48.8c0,6.8,1.5,12.2,4.5,16.1s7.7,5.9,14.1,5.9
		c4.4,0,8.2-0.8,11.4-2.3s5.8-3.6,7.8-6.4s3.5-6.1,4.5-9.9s1.5-8,1.5-12.7v-39.6h13.5v61.9c0,3.7,0.1,7.2,0.3,10.4
		c0.2,3.2,0.3,6.2,0.3,8.8H196V317.9z M285,306.3c-1.9,3.2-4.3,5.9-7.4,7.9s-6.5,3.5-10.4,4.4s-7.8,1.4-11.9,1.4
		c-6.9,0-12.9-1.1-18-3.2c-5-2.1-9.6-6.1-13.6-11.9l10.8-8.3c2.7,3.4,5.6,6,8.8,8s7.2,2.9,12.1,2.9c2.1,0,4.2-0.2,6.3-0.7
		c2.1-0.5,4.1-1.2,5.8-2.3c1.7-1,3.1-2.3,4.2-3.9c1-1.6,1.6-3.4,1.6-5.6s-0.5-4-1.5-5.4s-2.3-2.6-3.9-3.6s-3.5-1.8-5.6-2.3
		c-2.1-0.6-4.2-1.1-6.4-1.6c-3.8-0.8-7.5-1.7-10.9-2.8c-3.5-1-6.5-2.4-9.1-4.1s-4.7-3.8-6.2-6.5c-1.6-2.7-2.3-6.1-2.3-10.2
		c0-3.9,0.9-7.4,2.6-10.4c1.7-3,4-5.5,6.9-7.5s6.1-3.5,9.7-4.5c3.6-1,7.3-1.6,11.1-1.6c5.8,0,11.1,1.2,16.1,3.5
		c4.9,2.3,8.8,6.1,11.5,11.3l-11.3,7.5c-1.7-2.9-4-5.2-6.9-7c-2.8-1.8-6.3-2.7-10.3-2.7c-1.9,0-3.7,0.2-5.6,0.7
		c-1.9,0.5-3.6,1.2-5.1,2.1c-1.5,0.9-2.7,2.1-3.7,3.6c-1,1.4-1.5,3.1-1.5,4.9c0,1.7,0.5,3.2,1.6,4.4c1.1,1.2,2.6,2.3,4.5,3.2
		c1.9,0.9,4.1,1.7,6.6,2.4c2.5,0.7,5.1,1.3,7.7,1.7c3.6,0.7,7,1.6,10.2,2.7s6.1,2.6,8.5,4.4c2.4,1.9,4.3,4.2,5.7,6.9
		c1.4,2.8,2.1,6.2,2.1,10.2C287.8,299.1,286.9,303.1,285,306.3z M329.4,296.2c0.1,2.3,0.6,4.2,1.4,5.9c0.8,1.7,2,3,3.6,4
		s3.9,1.5,6.9,1.5c2,0,4-0.2,6.1-0.7s4-1.2,5.9-2.1l0.5,12.3c-2.3,1-4.9,1.8-7.7,2.3c-2.8,0.5-5.5,0.7-8.1,0.7
		c-4.9,0-8.7-0.6-11.6-1.9s-5.1-3.1-6.8-5.4c-1.6-2.3-2.7-5.2-3.2-8.6s-0.8-7.2-0.8-11.4v-44.6H298v-11.5h17.7v-27.1l13.5,11
		l-0.4,16.2h26.8l18.5,11.5h-44.9v40.6C329.3,291.4,329.3,293.9,329.4,296.2z"/>
</g>
<path class="st1" d="M562,292.1c0.5,3.2,1.7,6.2,3.7,8.7c1.3,1.8,2.8,3.2,4.4,4.5l5.6-9.7c-1-1-1.7-2.2-2.2-3.5H562z"/>
<path class="st1" d="M583.3,277.5c0.9,0,1.7,0.1,2.5,0.3l5.6-9.8c-2.5-1-5.2-1.5-8.2-1.5c-0.6,0-1.3,0-1.9,0.1
	c-1.9,0.1-3.8,0.6-5.6,1.2l5.7,9.9C582.1,277.6,582.7,277.5,583.3,277.5z"/>
<path class="st1" d="M575.4,281.1l-5.6-9.8c-0.1,0.1-0.2,0.2-0.3,0.2c-4.3,3.7-6.8,8.3-7.5,13.5h11.3
	C573.6,283.6,574.4,282.2,575.4,281.1z"/>
<path class="st1" d="M583.3,298.8c-0.5,0-1,0-1.4-0.1l-5.7,9.9c2.2,0.8,4.6,1.2,7.2,1.2c1.2,0,2.4-0.1,3.6-0.2
	c1.5-0.2,2.9-0.6,4.3-1.1l-5.7-9.9C584.8,298.8,584.1,298.8,583.3,298.8z"/>
<path class="st1" d="M601,275.6c-1.1-1.4-2.3-2.7-3.5-3.8l-5.7,9.9c0.8,1,1.4,2.2,1.8,3.4h11.3c0-0.2,0-0.3,0-0.5
	C604.3,281.3,603,278.2,601,275.6z"/>
<path class="st1" d="M591.5,295l5.7,9.8c4.2-3.6,6.7-7.8,7.5-12.8h-11.4C592.8,293.1,592.2,294.1,591.5,295z"/>
<path class="st1" d="M583.2,319.8l31-0.8v-30.9c0,8.5-3,15.8-9.1,21.8C599.1,316,591.7,319.8,583.2,319.8z"/>
<path class="st1" d="M627.3,286.1c0-0.2,0-0.4,0-0.6c0-0.5-0.1-1-0.1-1.5c0-0.2,0-0.4-0.1-0.6c-0.1-0.6-0.1-1.2-0.2-1.8v-0.1
	c-0.1-0.6-0.2-1.3-0.3-1.9c0-0.2-0.1-0.4-0.1-0.6c-0.1-0.4-0.2-0.9-0.3-1.3c0-0.2-0.1-0.4-0.2-0.6c-0.1-0.5-0.3-1.1-0.4-1.6
	c-2-6.8-5.7-13-11.2-18.4c-8.6-8.6-19-12.9-31.1-12.9s-22.5,4.3-31.1,12.9c-8.6,8.6-12.9,19-12.9,31.1c0,3.9,0.4,7.6,1.3,11.1
	c6,2.2,11.7,4.2,16.9,5.9c-3.4-5-5.1-10.7-5.1-17.1c0-8.5,3-15.8,9.1-21.8c6-6,13.3-9.1,21.8-9.1s15.8,3,21.8,9.1
	c3.4,3.4,5.8,7.2,7.3,11.3c0.3,0.7,0.5,1.5,0.7,2.2c0,0.1,0.1,0.3,0.1,0.4c0.2,0.7,0.3,1.5,0.5,2.2c0,0.1,0,0.3,0.1,0.4
	c0.1,0.8,0.2,1.5,0.3,2.3c0,0.1,0,0.2,0,0.3c0.1,0.8,0.1,1.7,0.1,2.5c0,0.7,0,1.5-0.1,2.2c-0.5,7.6-3.5,14.1-9,19.6
	c-0.4,0.4-0.8,0.8-1.2,1.2c-4.4,4.4-8.3,6.6-14.4,7.8c-7.7,1.6-15.6,1.1-23.1-1.2c-40.8-12.7-107.7-37.8-161.5-60.3
	c-36.8-15.3-70.1-37.5-99.9-63.9c-7.1-6.3-16-10.3-24.8-10.3c-5.9,0-15.5,1.6-20.3,4.5c-4.5-20.8-21.8-36.2-42.4-36.2
	c-11.5,0-30,6.7-37.8,14.6c-12.6-12.6-29.5-20.4-48.1-20.4c-38.9,0-70.5,34-70.7,76c-26.8,1.7-48.1,25.8-48,55.3
	c0.1,30.6,23.6,55.1,51.9,55.1h496.1h8c1.6,0,3.2,0,4.7,0l0,0c25.1-0.6,33.4-5.6,40.8-12.9c8.6-8.6,12.9-19,12.9-31.1
	C627.4,287.5,627.4,286.8,627.3,286.1z M64.9,321.2c-22.5,0-40.8-19.8-40.9-44.1c-0.1-23.5,16.5-42.9,37.7-44.3l10.2-0.7v-10.3
	c0.2-35.9,26.9-65,59.7-65c14.9,0,29.2,6.1,40.3,17.1l7.8,7.8l7.8-7.9c5.5-5.5,20.9-11.4,29.9-11.4c15.1,0,28.1,11.3,31.7,27.6
	l3.3,14.9l13.1-7.8c2.2-1.3,9.5-3,14.7-3c5.7,0,12.1,2.7,17.5,7.5c32.3,28.7,67,50.8,102.9,65.8c47.5,19.8,101.4,40.2,140.8,53.5
	H64.9V321.2z"/>
</svg>
